<svg width="44" height="44" viewBox="0 0 44 44" fill="none" xmlns="http://www.w3.org/2000/svg">
<rect width="44" height="44" rx="22" fill="#2091D0"/>
<path d="M27 31V29C27 27.9391 26.5786 26.9217 25.8284 26.1716C25.0783 25.4214 24.0609 25 23 25H15C13.9391 25 12.9217 25.4214 12.1716 26.1716C11.4214 26.9217 11 27.9391 11 29V31M33 31V29C32.9993 28.1137 32.7044 27.2528 32.1614 26.5523C31.6184 25.8519 30.8581 25.3516 30 25.13M26 13.13C26.8604 13.3503 27.623 13.8507 28.1676 14.5523C28.7122 15.2539 29.0078 16.1168 29.0078 17.005C29.0078 17.8932 28.7122 18.7561 28.1676 19.4577C27.623 20.1593 26.8604 20.6597 26 20.88M23 17C23 19.2091 21.2091 21 19 21C16.7909 21 15 19.2091 15 17C15 14.7909 16.7909 13 19 13C21.2091 13 23 14.7909 23 17Z" stroke="white" stroke-width="2" stroke-linecap="round" stroke-linejoin="round"/>
</svg>
